<?xml version="1.0" encoding="utf-8"?>
<!-- Generator: Adobe Illustrator 28.0.0, SVG Export Plug-In . SVG Version: 6.00 Build 0)  -->
<svg version="1.1" id="Layer_1" xmlns="http://www.w3.org/2000/svg" xmlns:xlink="http://www.w3.org/1999/xlink" x="0px" y="0px"
	 viewBox="0 0 70.7 80" style="enable-background:new 0 0 70.7 80;" xml:space="preserve">
<style type="text/css">
	.st0{fill:none;}
</style>
<path d="M0,0v80h32.8V0H0z M28.6,75.9H4.1v-8.8h12.9v-4.5H4.1v-7.9H12v-4.5H4.1v-7.9h12.9v-4.5H4.1v-7.9H12v-4.5H4.1v-8.5h12.9v-4.5
	H4.1V4.1h24.5V75.9z"/>
<path d="M40.8,0v64.5l15,15.5l15-15.5V0H40.8z M66.5,4.3V13H44.9V4.3H66.5z M44.9,17.9h8.6v42.3h-8.6V17.9z M55.7,73.9l-9.1-9.5
	h18.2L55.7,73.9z M58.1,60.2V17.9h8.4v42.3H58.1z"/>
</svg>
