<?xml version="1.0" encoding="utf-8"?>
<!-- Generator: Adobe Illustrator 28.0.0, SVG Export Plug-In . SVG Version: 6.00 Build 0)  -->
<svg version="1.1" id="Layer_1" xmlns="http://www.w3.org/2000/svg" xmlns:xlink="http://www.w3.org/1999/xlink" x="0px" y="0px"
	 viewBox="0 0 80 77.7" style="enable-background:new 0 0 80 77.7;" xml:space="preserve">
<style type="text/css">
	.st0{fill:none;}
</style>
<g>
	<g>
		<polygon points="59.5,30.1 52.3,30.1 52.3,34.2 59.5,34.2 59.5,30.1 		"/>
	</g>
	<g>
		<path d="M68.3,0H44.1C41.8,0,40,1.8,40,4.1v3H0v54.7h7.6v2.8c0,2.4,1.9,4.3,4.3,4.3h12.6c2.4,0,4.3-1.9,4.3-4.3v-2.8H80V7h-7.6v-3
			C72.4,1.8,70.6,0,68.3,0L68.3,0z M44.1,37c-0.2,0-0.4-0.2-0.4-0.4V10.7V7v-3c0-0.2,0.2-0.4,0.4-0.4h24.3c0.2,0,0.4,0.2,0.4,0.4v3
			v3.7v25.9c0,0.2-0.2,0.4-0.4,0.4H44.1L44.1,37z M44.1,40.6h24.3c2.3,0,4.1-1.8,4.1-4.1V10.7h3.9v47.4H28.8V38.7
			c0-2.4-1.9-4.3-4.3-4.3H11.9c-2.4,0-4.3,1.9-4.3,4.3v19.4H3.7V10.7H40v25.9C40,38.8,41.8,40.6,44.1,40.6L44.1,40.6z M11.9,65.3
			c-0.4,0-0.7-0.3-0.7-0.7v-2.8v-3.7V38.7c0-0.4,0.3-0.7,0.7-0.7h12.6c0.4,0,0.7,0.3,0.7,0.7v19.4v3.7v2.8c0,0.4-0.3,0.7-0.7,0.7
			H11.9L11.9,65.3z"/>
	</g>
	<g>
		<polygon points="21.8,58.1 14.6,58.1 14.6,62.2 21.8,62.2 21.8,58.1 		"/>
	</g>
	<g>
		<path d="M46.9,67.7H32.7v5.7h-7.1v4.3h7.1h14.2h7v-4.3h-7V67.7L46.9,67.7z M37.3,73.1v-0.8h5v0.8H37.3L37.3,73.1z"/>
	</g>
</g>
</svg>
