<?xml version="1.0" encoding="utf-8"?>
<!-- Generator: Adobe Illustrator 28.0.0, SVG Export Plug-In . SVG Version: 6.00 Build 0)  -->
<svg version="1.1" id="Layer_1" xmlns="http://www.w3.org/2000/svg" xmlns:xlink="http://www.w3.org/1999/xlink" x="0px" y="0px"
	 viewBox="0 0 70.9 80" style="enable-background:new 0 0 70.9 80;" xml:space="preserve">
<style type="text/css">
	.st0{fill:none;}
</style>
<g>
	<g>
		<path d="M56.5,14.4V76H4V14.4H56.5 M60.5,10.4H0V80h60.5V10.4L60.5,10.4z"/>
	</g>
	<g>
		<polygon points="47.3,27.8 13.8,27.8 13.8,31.1 47.3,31.1 47.3,27.8 		"/>
	</g>
	<g>
		<polygon points="47.3,41.1 13.8,41.1 13.8,45.2 47.3,45.2 47.3,41.1 		"/>
	</g>
	<g>
		<polygon points="28.5,57.5 13.8,57.5 13.8,61.6 28.5,61.6 28.5,57.5 		"/>
	</g>
	<polygon points="70.9,0 10.4,0 10.4,4.1 14.5,4.1 21.1,4.1 66.8,4.1 66.8,60 66.8,65.5 66.8,69.6 70.9,69.6 	"/>
</g>
</svg>
