<?xml version="1.0" encoding="utf-8"?>
<!-- Generator: Adobe Illustrator 28.0.0, SVG Export Plug-In . SVG Version: 6.00 Build 0)  -->
<svg version="1.1" id="Layer_1" xmlns="http://www.w3.org/2000/svg" xmlns:xlink="http://www.w3.org/1999/xlink" x="0px" y="0px"
	 viewBox="0 0 256 79.9" style="enable-background:new 0 0 256 79.9;" xml:space="preserve">
<style type="text/css">
	.st0{fill:#B3B3B3;}
</style>
<g>
	<path class="st0" d="M134.9,20.1c0,2.9-2.3,5.2-5.2,5.2c-2.9,0-5.2-2.3-5.2-5.2s2.2-5.2,5.2-5.2C132.7,15,134.9,17.3,134.9,20.1z
		 M113.5,30.6v1.3c0,0-2.5-3.2-7.8-3.2c-8.7,0-15.5,6.6-15.5,15.8c0,9.1,6.7,15.8,15.5,15.8c5.4,0,7.8-3.3,7.8-3.3v1.4
		c0,0.6,0.5,1.1,1.1,1.1h6.5V29.4h-6.5C114,29.4,113.5,30,113.5,30.6L113.5,30.6z M113.5,49.8c-1.2,1.8-3.6,3.3-6.5,3.3
		c-5.1,0-9-3.2-9-8.6c0-5.4,3.9-8.6,9-8.6c2.8,0,5.4,1.6,6.5,3.3V49.8z M125.9,29.4h7.7v30.1h-7.7V29.4L125.9,29.4z M240.6,28.6
		c-5.3,0-7.8,3.2-7.8,3.2V15h-7.7v44.5h6.5c0.6,0,1.1-0.6,1.1-1.1V57c0,0,2.5,3.3,7.8,3.3c8.7,0,15.5-6.7,15.5-15.8
		S249.2,28.6,240.6,28.6L240.6,28.6z M239.3,53c-3,0-5.3-1.5-6.5-3.3V39c1.2-1.6,3.8-3.3,6.5-3.3c5.1,0,9,3.2,9,8.6
		S244.4,53,239.3,53z M221.1,41.7v17.9h-7.7v-17c0-5-1.6-7-5.9-7c-2.3,0-4.7,1.2-6.2,3v21h-7.7V29.4h6.1c0.6,0,1.1,0.6,1.1,1.1v1.3
		c2.2-2.3,5.2-3.2,8.2-3.2c3.4,0,6.2,1,8.4,2.9C220.1,33.8,221.1,36.6,221.1,41.7L221.1,41.7z M175,28.6c-5.3,0-7.8,3.2-7.8,3.2V15
		h-7.7v44.5h6.5c0.6,0,1.1-0.6,1.1-1.1V57c0,0,2.5,3.3,7.8,3.3c8.7,0,15.5-6.7,15.5-15.8C190.5,35.4,183.7,28.6,175,28.6L175,28.6z
		 M173.7,53c-3,0-5.3-1.5-6.5-3.3V39c1.2-1.6,3.8-3.3,6.5-3.3c5.1,0,9,3.2,9,8.6S178.8,53,173.7,53z M152.9,28.6
		c2.3,0,3.5,0.4,3.5,0.4v7.1c0,0-6.4-2.2-10.4,2.4v21h-7.7V29.4h6.5c0.6,0,1.1,0.6,1.1,1.1v1.3C147.4,30.2,150.5,28.6,152.9,28.6
		L152.9,28.6z M73.2,56.8c-0.4-1-0.8-2-1.2-2.9c-0.6-1.4-1.3-2.8-1.8-4.1l-0.1-0.1c-5.5-12-11.4-24.2-17.7-36.1l-0.2-0.5
		c-0.7-1.2-1.3-2.5-1.9-3.8c-0.8-1.4-1.6-3-2.9-4.4c-2.6-3.2-6.2-5-10.2-5c-4,0-7.6,1.8-10.2,4.8c-1.2,1.4-2.1,3-2.9,4.4
		c-0.6,1.3-1.3,2.5-1.9,3.8l-0.2,0.5c-6.2,12-12.2,24.2-17.7,36.1l-0.1,0.2C3.6,51,3,52.4,2.3,53.8c-0.4,0.9-0.8,1.8-1.2,2.9
		c-1,3-1.4,5.8-1,8.6c0.9,6,4.9,11,10.4,13.3c2.1,0.9,4.2,1.3,6.5,1.3c0.6,0,1.4-0.1,2.1-0.2c2.6-0.3,5.4-1.2,8-2.7
		c3.3-1.8,6.4-4.5,9.9-8.3c3.5,3.8,6.7,6.5,9.9,8.3c2.6,1.5,5.4,2.4,8,2.7c0.6,0.1,1.4,0.2,2.1,0.2c2.2,0,4.5-0.4,6.5-1.3
		c5.6-2.2,9.5-7.4,10.4-13.3C74.5,62.5,74.2,59.7,73.2,56.8L73.2,56.8z M37.1,60.9C32.8,55.5,30,50.4,29,46.1
		c-0.4-1.8-0.5-3.4-0.2-4.9c0.2-1.3,0.6-2.4,1.3-3.4c1.5-2.2,4.1-3.5,7-3.5c3,0,5.6,1.3,7,3.5c0.6,1,1.1,2.1,1.3,3.4
		c0.2,1.4,0.2,3.1-0.2,4.9C44.2,50.3,41.4,55.4,37.1,60.9z M69,64.7c-0.6,4.2-3.4,7.8-7.3,9.4c-1.9,0.8-4,1-6.1,0.8
		c-2-0.2-4-0.9-6.1-2.1c-2.9-1.6-5.8-4.1-9.1-7.8c5.3-6.5,8.5-12.4,9.7-17.7c0.6-2.5,0.6-4.7,0.4-6.8c-0.3-2-1-3.8-2.2-5.4
		c-2.5-3.6-6.6-5.7-11.3-5.7s-8.8,2.2-11.3,5.7c-1.1,1.6-1.8,3.4-2.2,5.4c-0.3,2.1-0.2,4.4,0.4,6.8c1.2,5.3,4.5,11.3,9.7,17.8
		c-3.3,3.7-6.2,6.2-9.1,7.8c-2.1,1.2-4.1,1.8-6.1,2.1c-2.2,0.2-4.2-0.1-6.1-0.8c-3.9-1.6-6.7-5.2-7.3-9.4c-0.2-2-0.1-4,0.7-6.2
		c0.2-0.8,0.6-1.6,1-2.6c0.6-1.3,1.2-2.6,1.8-4l0.1-0.2c5.5-11.9,11.4-24.1,17.6-35.9l0.2-0.5c0.6-1.2,1.3-2.5,1.9-3.7
		c0.6-1.3,1.4-2.5,2.2-3.5c1.7-1.9,3.9-3,6.4-3s4.7,1,6.4,3c0.9,1,1.6,2.2,2.2,3.5c0.6,1.2,1.3,2.5,1.9,3.7l0.2,0.5
		c6.1,11.9,11.9,23.9,17.5,36V52c0.6,1.3,1.2,2.7,1.8,4c0.4,1,0.8,1.8,1,2.6C69.1,60.6,69.3,62.6,69,64.7L69,64.7z"/>
</g>
</svg>
