<?xml version="1.0" encoding="utf-8"?>
<!-- Generator: Adobe Illustrator 28.0.0, SVG Export Plug-In . SVG Version: 6.00 Build 0)  -->
<svg version="1.1" id="Layer_1" xmlns="http://www.w3.org/2000/svg" xmlns:xlink="http://www.w3.org/1999/xlink" x="0px" y="0px"
	 viewBox="0 0 256 83.5" style="enable-background:new 0 0 256 83.5;" xml:space="preserve">
<style type="text/css">
	.st0{fill:#B3B3B3;}
</style>
<g id="XMLID_00000044138132996693838910000003302994050092534420_">
	<path id="XMLID_00000069390409604552545940000016122967636980588968_" class="st0" d="M203.9,2.2h9.2v61.3h-9.2V2.2z"/>
	<path id="XMLID_00000048462012477644444870000007413173916504109738_" class="st0" d="M87.2,23.1c-11.5,0-20.9,8.8-20.9,20.9
		c0,12,9.4,20.9,20.9,20.9s20.9-8.8,20.9-20.9C108.2,31.8,98.8,23.1,87.2,23.1L87.2,23.1z M87.2,56.6c-6.3,0-11.8-5.2-11.8-12.6
		c0-7.5,5.4-12.6,11.8-12.6c6.3,0,11.8,5.1,11.8,12.6C99,51.4,93.5,56.6,87.2,56.6z"/>
	<path id="XMLID_00000133501077713324143000000007159221743181158806_" class="st0" d="M32.9,29.5v8.8H54c-0.6,5-2.3,8.6-4.8,11.1
		c-3.1,3.1-7.9,6.5-16.3,6.5c-13,0-23.2-10.5-23.2-23.6S19.8,8.8,32.9,8.8c7,0,12.2,2.8,16,6.3l6.2-6.2C49.8,3.9,42.7,0,32.9,0
		C15,0,0,14.5,0,32.4s15,32.4,32.9,32.4c9.6,0,16.9-3.2,22.6-9.1c5.9-5.9,7.7-14.1,7.7-20.7c0-2.1-0.2-4-0.5-5.5L32.9,29.5
		L32.9,29.5L32.9,29.5z"/>
	<path id="XMLID_00000036930235507820724960000001302654868390487200_" class="st0" d="M238.2,56.6c-4.7,0-8-2.1-10.1-6.3L256,38.7
		l-0.9-2.4c-1.7-4.7-7-13.3-17.9-13.3c-10.8,0-19.7,8.5-19.7,20.9c0,11.7,8.8,20.9,20.7,20.9c9.6,0,15.1-5.9,17.4-9.2l-7.1-4.7
		C246.1,54.3,242.9,56.6,238.2,56.6L238.2,56.6z M237.5,31.1c3.6,0,6.7,1.8,7.7,4.4l-18.6,7.7C226.4,35.2,232.9,31.1,237.5,31.1
		L237.5,31.1z"/>
	<path id="XMLID_00000106827031760563606260000007501585030381893505_" class="st0" d="M188.9,27.7h-0.3c-2.1-2.5-6-4.7-11-4.7
		c-10.4,0-20,9.2-20,20.9c0,11.7,9.6,20.8,20,20.8c5,0,8.9-2.2,11-4.7h0.3v3c0,8-4.3,12.2-11.1,12.2c-5.6,0-9.1-4-10.5-7.4l-8,3.3
		c2.3,5.5,8.4,12.3,18.5,12.3c10.8,0,19.8-6.3,19.8-21.7V24.3h-8.7V27.7z M178.4,56.6c-6.3,0-11.6-5.3-11.6-12.6
		c0-7.4,5.3-12.7,11.6-12.7c6.2,0,11.1,5.4,11.1,12.7C189.6,51.3,184.7,56.6,178.4,56.6z"/>
	<path id="XMLID_00000107567752572760364340000015279170476734295981_" class="st0" d="M132.9,23.1c-11.5,0-20.9,8.8-20.9,20.9
		c0,12,9.4,20.9,20.9,20.9s20.9-8.8,20.9-20.9C153.8,31.8,144.4,23.1,132.9,23.1L132.9,23.1z M132.9,56.6c-6.3,0-11.8-5.2-11.8-12.6
		c0-7.5,5.4-12.6,11.8-12.6c6.3,0,11.8,5.1,11.8,12.6C144.7,51.4,139.2,56.6,132.9,56.6z"/>
</g>
</svg>
