<?xml version="1.0" encoding="utf-8"?>
<!-- Generator: Adobe Illustrator 28.0.0, SVG Export Plug-In . SVG Version: 6.00 Build 0)  -->
<svg version="1.1" id="Layer_1" xmlns="http://www.w3.org/2000/svg" xmlns:xlink="http://www.w3.org/1999/xlink" x="0px" y="0px"
	 viewBox="0 0 256 92.9" style="enable-background:new 0 0 256 92.9;" xml:space="preserve">
<style type="text/css">
	.st0{fill-rule:evenodd;clip-rule:evenodd;fill:#B3B3B3;}
	.st1{fill:#B3B3B3;}
</style>
<g>
	<path class="st0" d="M41.6,0.1C26.6,17.2,5.9,36.3,1,60.1c-7.8,37.6,37.9,36.6,60.1,27.4C126.4,60.5,191,31.8,256,4
		C192.8,20.8,129.9,38.5,66.5,54.5C21.1,65.9,29.9,25.4,41.6,0.1L41.6,0.1z"/>
	<path class="st1" d="M41.6,0c0,0-0.1,0-0.1,0c-0.9,1.1-0.6,0.7-0.9,1.1c-0.2,0.3-0.5,0.5-0.7,0.8c-0.9,1-1.8,2-2.7,3
		c-2.7,3-5.4,5.9-8.1,8.9c-6.3,7-12.5,14.3-17.7,22.2c-4,6.2-7.4,12.9-9.5,20c-0.4,1.2-0.7,2.4-0.9,3.7C-0.4,66.1-0.6,73,2.3,78.9
		c0.5,0.9,1,1.8,1.6,2.7c1,1.4,2.1,2.6,3.3,3.7c1.9,1.6,4,2.9,6.3,4c3.5,1.6,7.2,2.5,11,3.1c5.6,0.8,11.2,0.7,16.8,0.1
		c5.5-0.6,11-1.7,16.2-3.5c2.2-0.7,4.3-1.6,6.5-2.5c2.5-1,4.9-2,7.4-3.1c8.5-3.5,17-7.1,25.5-10.7c32-13.5,63.8-27.3,95.6-41.2
		c16-7,32.1-13.9,48.1-20.8c3.9-1.7,7.8-3.3,11.7-5c0.9-0.4,1.9-0.8,2.8-1.2c0.3-0.1,0.5-0.2,0.8-0.3c0,0,0.2-0.1,0.2-0.1
		c0,0,0,0-0.1,0c0,0,0,0,0,0c0,0,0,0,0,0c-0.1,0-0.1,0-0.2,0c-0.2,0-0.3,0.1-0.5,0.1c-0.8,0.2-1.6,0.4-2.5,0.7
		c-2.1,0.6-4.3,1.1-6.4,1.7c-6.2,1.7-12.5,3.4-18.7,5c-18.7,5.1-37.5,10.2-56.2,15.2c-33,8.9-65.9,17.8-99,26.2c-2,0.5-4,1-5.9,1.5
		c-1.7,0.4-3.4,0.8-5.1,1.1c-1.3,0.2-2.7,0.4-4,0.6c-1,0.1-2.1,0.2-3.1,0.2c3.2-0.1,6.3-0.6,9.4-1.3c1.4-0.3,2.8-0.7,4.2-1
		c1.5-0.4,3-0.7,4.5-1.1c8.3-2.1,16.5-4.2,24.7-6.4c28.2-7.3,56.3-14.9,84.4-22.5c16.5-4.5,33-9,49.6-13.4c5.5-1.5,11-3,16.5-4.4
		c1.9-0.5,3.8-1,5.7-1.5l1.7-0.5c0.2,0,0.3-0.1,0.5-0.1c0,0,0,0,0,0c-0.3,0.1-0.5,0.2-0.8,0.3c-0.8,0.4-1.7,0.7-2.5,1.1
		c-3.4,1.5-6.8,2.9-10.1,4.4c-13.4,5.8-26.9,11.6-40.3,17.4c-33.4,14.5-66.9,29.1-100.4,43.3c-9.8,4.2-19.7,8.3-29.5,12.4
		c-2.6,1.1-5.3,2.2-7.9,3.3c-1.9,0.8-3.8,1.6-5.7,2.3c-3.8,1.3-7.8,2.3-11.8,3c-2.6,0.5-5.3,0.8-7.9,1c-2.1,0.2-4.1,0.2-6.2,0.2
		c-1.7,0-3.3-0.1-5-0.2c-1.1-0.1-2.2-0.2-3.3-0.4C17.1,91.1,9.9,88.5,5.2,83c-0.7-0.9-1.4-1.8-2-2.8c-0.8-1.4-1.5-3-2-4.6
		c-0.8-2.5-1.1-5.2-1-7.9c0.1-4.3,0.9-8.6,2.2-12.7c2-6.6,5.2-12.7,8.9-18.5C17,27.7,23.9,19.7,31,12c2.4-2.6,4.7-5.2,7.1-7.8
		c0.7-0.8,0.4-0.5,3.4-3.8c0,0,0,0,0,0c0.2-0.2,0,0,0.2-0.2C41.7,0.1,41.7,0.1,41.6,0C41.6,0,41.6,0,41.6,0L41.6,0z M54.3,56.4
		c-2.9,0.1-5.9,0-8.8-0.7c2.3,0.6,4.6,0.8,6.9,0.8C53,56.4,53.7,56.4,54.3,56.4L54.3,56.4z M41.3,0.7c-0.1,0.3-0.2,0.5-0.4,0.8
		c-0.2,0.4-0.3,0.8-0.5,1.1C40.5,2.4,40.8,1.9,41.3,0.7z M40.5,2.6c0,0.1-0.2,0.6-0.3,0.7c0,0.1-0.1,0.1-0.1,0.2
		C40.2,3.2,40.3,2.9,40.5,2.6z M40.1,3.5c-0.1,0.1-0.1,0.3-0.2,0.4c-0.7,1.7-1.4,3.3-2,5C38.6,7.1,39.3,5.3,40.1,3.5z M37.9,9
		c0,0.1-0.1,0.2-0.1,0.3c-0.2,0.6-0.4,1.1-0.6,1.7C37.4,10.3,37.6,9.6,37.9,9z M37.2,11c-0.2,0.5-0.3,0.9-0.5,1.4
		c0,0.1-0.1,0.2-0.1,0.3C36.8,12.1,37,11.6,37.2,11z M36.6,12.7c-0.1,0.4-0.2,0.8-0.4,1.2C36.3,13.4,36.4,13.1,36.6,12.7z
		 M36.2,13.8c-0.3,0.8-0.5,1.6-0.8,2.4C35.7,15.5,35.9,14.6,36.2,13.8z M35.4,16.3c-0.1,0.4-0.2,0.8-0.3,1.2
		C35.2,17,35.3,16.7,35.4,16.3z M35.1,17.4c-0.2,0.6-0.4,1.2-0.5,1.8c0,0.2-0.1,0.4-0.1,0.6C34.6,19,34.9,18.2,35.1,17.4z
		 M34.4,19.9c-0.1,0.4-0.2,0.7-0.3,1.1C34.3,20.6,34.3,20.2,34.4,19.9z M33.6,23.6c0,0.1-0.1,0.2-0.1,0.4c0,0.1,0,0.2-0.1,0.3
		C33.5,24.1,33.5,23.9,33.6,23.6L33.6,23.6z M32.6,29.4c0,0.4-0.1,0.8-0.1,1.1C32.5,30.2,32.6,29.8,32.6,29.4z M32.5,30.5
		c0,0.4-0.1,0.9-0.1,1.3c0,0.3,0,0.6,0,0.9C32.3,32,32.4,31.3,32.5,30.5L32.5,30.5z M32.3,32.9c-0.1,0.9-0.1,1.9-0.1,2.8
		C32.2,34.8,32.2,33.8,32.3,32.9z M32.2,35.8c0,1.1,0.1,2.3,0.2,3.4C32.3,38.1,32.2,37,32.2,35.8z M32.5,39.7
		c0.1,0.5,0.1,0.9,0.2,1.4c0,0.1,0.1,0.3,0.1,0.4C32.6,40.8,32.5,40.3,32.5,39.7z M32.7,41.4c0.1,0.7,0.3,1.4,0.5,2.1
		C33,42.8,32.9,42.1,32.7,41.4z M33.2,43.5c0.1,0.3,0.1,0.5,0.2,0.8C33.3,44,33.3,43.8,33.2,43.5z M34,45.8c0.1,0.2,0.1,0.3,0.2,0.5
		C34.1,46.2,34.1,46,34,45.8z M34.2,46.3c0.2,0.4,0.4,0.8,0.6,1.2C34.6,47.1,34.4,46.7,34.2,46.3z M34.8,47.5c0,0.1,0.1,0.1,0.1,0.2
		C34.9,47.7,34.8,47.6,34.8,47.5z M34.9,47.8c0.3,0.5,0.6,1,0.9,1.5C35.5,48.7,35.2,48.3,34.9,47.8z M35.8,49.2
		c0.6,0.8,1.2,1.6,2,2.3c0.5,0.5,1.1,1,1.7,1.4c-0.6-0.4-1.2-0.9-1.7-1.4C37,50.8,36.4,50,35.8,49.2L35.8,49.2z M39.5,53
		c0.2,0.2,0.5,0.3,0.7,0.5c0.3,0.2,0.5,0.3,0.8,0.4C40.5,53.6,40,53.3,39.5,53z M41,53.9c0.2,0.1,0.4,0.2,0.7,0.4
		C41.5,54.1,41.2,54,41,53.9z M43.7,55.1c0.3,0.1,0.5,0.2,0.8,0.3c0.3,0.1,0.6,0.2,0.9,0.2C44.8,55.5,44.3,55.3,43.7,55.1z"/>
</g>
</svg>
