<?xml version="1.0" encoding="utf-8"?>
<!-- Generator: Adobe Illustrator 28.0.0, SVG Export Plug-In . SVG Version: 6.00 Build 0)  -->
<svg version="1.1" id="Layer_1" xmlns="http://www.w3.org/2000/svg" xmlns:xlink="http://www.w3.org/1999/xlink" x="0px" y="0px"
	 viewBox="0 0 181.4 256" style="enable-background:new 0 0 181.4 256;" xml:space="preserve">
<style type="text/css">
	.st0{fill:#FFFFFF;}
</style>
<g>
	<path class="st0" d="M42.7,17.2v17.2h27.5V23h-16V11.5h16V0H42.7V17.2z M75.7,11.2l0,11.2l8,0l8,0v2h-16v10.4h27.5v-23h-16v-2h16V0
		H75.6L75.7,11.2z M108.7,11.3v11.3h15.9v2h-15.9v10.4h27.4v-23h-15.9v-2h15.9V0h-27.4V11.3z M0.1,50.8c0,0.3,3.8,41.9,8.3,92.5
		s8.2,92,8.2,92.1s16.7,4.7,37,10.3l37,10.3l37.1-10.3c20.4-5.7,37.1-10.3,37.1-10.3c0,0,3.7-41.4,8.2-92s8.2-92.2,8.3-92.5l0.1-0.6
		H0L0.1,50.8z M147.5,88.5c0,0.3-1.1,12.4-7.4,83.2c-1.6,17.6-2.9,32.1-3,32.2c-0.2,0.2-46.1,12.9-46.4,12.9
		c-0.3,0-46.4-12.8-46.5-12.9c0,0-0.7-7.8-1.6-17.2c-0.8-9.4-1.6-17.5-1.6-17.8l-0.1-0.6h11.4c6.3,0,11.4,0,11.4,0
		c0,0,0.4,4.1,0.8,9c0.4,4.9,0.8,9,0.9,9c0,0,5.7,1.6,12.6,3.4l12.6,3.4l12.6-3.4c6.9-1.9,12.6-3.4,12.7-3.4
		c0.1-0.1,2.6-28.1,2.6-28.9v-0.6H39.8v-0.4c0-0.2-0.4-5.3-1-11.3c-0.5-6-1-10.9-1-11c0,0,18.6,0,41.4,0h41.4v-0.4
		c0-0.2,0.4-5.3,1-11.4c0.5-6.1,1-11.1,1-11.3c0-0.2-3.3-0.2-43.4-0.3l-43.4,0l-0.9-10.3c-0.5-5.7-1-10.7-1-11.3l-0.1-1h113.7V88.5z
		"/>
</g>
</svg>
