<?xml version="1.0" encoding="utf-8"?>
<!-- Generator: Adobe Illustrator 28.0.0, SVG Export Plug-In . SVG Version: 6.00 Build 0)  -->
<svg fill='#ffff' version="1.1" id="Layer_1" xmlns="http://www.w3.org/2000/svg" xmlns:xlink="http://www.w3.org/1999/xlink" x="0px" y="0px"
	 viewBox="0 0 181.4 256" style="enable-background:new 0 0 181.4 256;" xml:space="preserve">
<path class="st0" d="M16.9,0h11.5v11.4H39V0h11.5v34.5H39V23H28.4v11.6H16.9V0L16.9,0z M65.7,11.4H55.5V0h31.9v11.4H77.2v23.1H65.7
	V11.4z M92.5,0h12l7.4,12.1L119.3,0h12v34.5h-11.5V17.4l-7.9,12.3h-0.2l-8-12.3v17.1H92.4L92.5,0L92.5,0z M137.1,0h11.5v23.1h16.2
	v11.4H137V0H137.1z"/>
<path class="st0" d="M0,50.3l16.5,185.1L90.6,256l74.3-20.6l16.5-185.1H0z M147,94.2l-1.1,11.6l-0.4,5.1H90.7h-0.1h-32l2.1,23.2
	h29.9h0.1h46.6h6.1l-0.6,6.1l-5.3,59.8l-0.3,3.8l-46.5,12.9h-0.1l-46.5-12.9l-3.2-35.6h22.8l1.6,18.1l25.3,6.8l25.3-6.8l2.7-29.5
	H90.7h-0.1H39.9l-5.6-62.6l-0.5-6h56.8h0.1h56.8L147,94.2z"/>
</svg>
