<?xml version="1.0" encoding="utf-8"?>
<!-- Generator: Adobe Illustrator 28.0.0, SVG Export Plug-In . SVG Version: 6.00 Build 0)  -->
<svg version="1.1" id="Layer_1" xmlns="http://www.w3.org/2000/svg" xmlns:xlink="http://www.w3.org/1999/xlink" x="0px" y="0px"
	 viewBox="0 0 232.3 256" style="enable-background:new 0 0 232.3 256;" xml:space="preserve">
<style type="text/css">
	.st0{fill:#FFFFFF;}
</style>
<g>
	<g>
		<path class="st0" d="M105.7,2.7c6.3-3.6,14.6-3.6,21,0c31.9,18,63.8,36,95.7,54.1c6,3.4,10,10.1,10,17v108.5
			c0,7.2-4.4,14-10.7,17.3c-31.8,17.9-63.6,35.9-95.4,53.8c-6.5,3.7-14.9,3.4-21.2-0.6c-9.5-5.5-19.1-11-28.6-16.5
			c-1.9-1.2-4.1-2.1-5.5-4c1.2-1.6,3.4-1.8,5.2-2.6c4-1.3,7.6-3.3,11.3-5.3c0.9-0.6,2.1-0.4,2.9,0.2c8.2,4.7,16.2,9.5,24.4,14.1
			c1.7,1,3.5-0.3,5-1.2c31.2-17.6,62.5-35.2,93.7-52.9c1.2-0.6,1.8-1.8,1.7-3c0-35.8,0-71.6,0-107.4c0.1-1.4-0.7-2.8-2-3.3
			c-31.7-17.8-63.4-35.7-95.1-53.6c-1.1-0.8-2.6-0.8-3.7,0C82.6,35.3,50.9,53.2,19.2,71c-1.3,0.6-2.2,1.9-2,3.3
			c0,35.8,0,71.6,0,107.4c-0.1,1.3,0.6,2.5,1.7,3c8.5,4.8,16.9,9.6,25.4,14.3c4.8,2.6,10.6,4.1,15.9,2.1c4.6-1.7,7.9-6.4,7.8-11.3
			c0-35.6,0-71.2,0-106.7c-0.1-1.6,1.4-2.9,2.9-2.7c4.1,0,8.1-0.1,12.2,0c1.7,0,2.9,1.7,2.7,3.3c0,35.8,0,71.6,0,107.4
			c0,9.5-3.9,19.9-12.7,24.6c-10.9,5.6-24.3,4.4-35-1c-9.3-4.6-18.2-10.1-27.3-15.1C4.3,196.3,0,189.4,0,182.2V73.8
			c-0.1-7.1,4.1-13.9,10.3-17.2C42.1,38.6,73.9,20.7,105.7,2.7z"/>
		<path class="st0" d="M133.4,77.9c13.9-0.9,28.7-0.5,41.2,6.3c9.7,5.2,15,16.2,15.2,27c-0.3,1.4-1.8,2.2-3.2,2.1c-4,0-8,0.1-12.1,0
			c-1.7,0.1-2.7-1.5-2.9-3c-1.2-5.1-4-10.2-8.8-12.7c-7.4-3.7-16-3.5-24.1-3.5c-5.9,0.3-12.3,0.8-17.3,4.3c-3.8,2.6-5,7.9-3.6,12.2
			c1.3,3.1,4.8,4.1,7.7,5c16.7,4.4,34.4,3.9,50.8,9.7c6.8,2.3,13.4,6.9,15.7,14c3,9.5,1.7,20.9-5.1,28.6
			c-5.5,6.3-13.5,9.7-21.5,11.6c-10.6,2.4-21.6,2.4-32.4,1.4c-10.1-1.2-20.7-3.8-28.5-10.7c-6.7-5.8-10-14.9-9.6-23.6
			c0.1-1.5,1.5-2.5,3-2.4c4.1,0,8.1,0,12.2,0c1.6-0.1,2.8,1.3,2.9,2.8c0.7,4.9,2.6,10,6.9,12.9c8.2,5.3,18.6,4.9,28,5.1
			c7.8-0.3,16.6-0.5,23-5.6c3.4-2.9,4.4-7.9,3.5-12.1c-1-3.6-4.7-5.2-7.9-6.3c-16.5-5.2-34.4-3.3-50.7-9.2
			c-6.6-2.3-13-6.8-15.6-13.6c-3.6-9.6-1.9-21.6,5.6-29C112.9,81.7,123.4,78.9,133.4,77.9L133.4,77.9z"/>
	</g>
</g>
</svg>
