<?xml version="1.0" encoding="utf-8"?>
<!-- Generator: Adobe Illustrator 28.0.0, SVG Export Plug-In . SVG Version: 6.00 Build 0)  -->
<svg version="1.1" id="Layer_1" xmlns="http://www.w3.org/2000/svg" xmlns:xlink="http://www.w3.org/1999/xlink" x="0px" y="0px"
	 viewBox="0 0 257.3 256" style="enable-background:new 0 0 257.3 256;" xml:space="preserve">
<style type="text/css">
	.st0{fill:#FFFFFF;}
</style>
<g>
	<path class="st0" d="M127.7,0C62.4,0,66.5,28.3,66.5,28.3l0.1,29.4h62.3v8.8H41.8c0,0-41.8-4.7-41.8,61.2
		c0,65.9,36.5,63.6,36.5,63.6h21.8v-30.6c0,0-1.2-36.5,35.9-36.5H156c0,0,34.7,0.6,34.7-33.6V34.2C190.7,34.2,196,0,127.7,0z
		 M93.4,19.7c6.2,0,11.2,5,11.2,11.2c0,0,0,0,0,0c0,6.2-5,11.2-11.2,11.2c0,0,0,0,0,0c-6.2,0-11.2-5-11.2-11.2c0,0,0,0,0,0
		C82.1,24.8,87.2,19.7,93.4,19.7C93.4,19.7,93.4,19.7,93.4,19.7z"/>
	<path class="st0" d="M129.6,256c65.3,0,61.2-28.3,61.2-28.3l-0.1-29.4h-62.3v-8.8h87.1c0,0,41.8,4.7,41.8-61.2
		c0-65.9-36.5-63.6-36.5-63.6h-21.8v30.6c0,0,1.2,36.5-35.9,36.5h-61.8c0,0-34.7-0.6-34.7,33.6v56.4C66.6,221.8,61.3,256,129.6,256
		L129.6,256z M164,236.3c-6.2,0-11.2-5-11.2-11.2c0,0,0,0,0,0c0-6.2,5-11.2,11.2-11.2c0,0,0,0,0,0c6.2,0,11.2,5,11.2,11.2
		c0,0,0,0,0,0C175.2,231.2,170.2,236.3,164,236.3C164,236.3,164,236.3,164,236.3L164,236.3z"/>
</g>
</svg>
