<?xml version="1.0" encoding="utf-8"?>
<!-- Generator: Adobe Illustrator 28.0.0, SVG Export Plug-In . SVG Version: 6.00 Build 0)  -->
<svg version="1.1" id="Layer_1" xmlns="http://www.w3.org/2000/svg" xmlns:xlink="http://www.w3.org/1999/xlink" x="0px" y="0px"
	 viewBox="0 0 256 191.9" style="enable-background:new 0 0 256 191.9;" xml:space="preserve">
<style type="text/css">
	.st0{fill:#FFFFFF;}
</style>
<g>
	<path class="st0" d="M220.4,110.2c-9,0.1-16.7,2.2-23.2,5.4c-2.4-4.8-4.8-8.9-5.2-12c-0.5-3.6-1-5.8-0.5-10.1
		c0.5-4.3,3-10.4,3-10.9c-0.1-0.5-0.6-2.7-5.7-2.7s-9.6,1-10.1,2.4c-0.5,1.4-1.5,4.5-2.2,7.7c-0.9,4.7-10.3,21.4-15.7,30.1
		c-1.8-3.4-3.3-6.4-3.6-8.8c-0.4-3.6-1-5.8-0.4-10.1c0.6-4.3,3.1-10.4,3.1-10.9c-0.1-0.5-0.6-2.7-5.7-2.7c-5.2-0.1-9.6,1-10.1,2.4
		c-0.5,1.4-1.1,4.6-2.2,7.7c-1.1,3.1-13.6,30.9-16.8,38.2c-1.7,3.7-3.1,6.7-4.2,8.7c-1.1,2-0.1,0.2-0.2,0.4
		c-0.9,1.7-1.4,2.7-1.4,2.7v0.1c-0.7,1.3-1.5,2.4-1.8,2.4c-0.3,0-0.8-3.4,0.1-8c1.9-9.7,6.4-24.7,6.3-25.3c0-0.3,0.8-2.9-2.9-4.3
		c-3.7-1.4-4.9,0.9-5.3,0.9c-0.3,0-0.6,0.8-0.6,0.8s4.1-17-7.8-17c-7.4,0-17.6,8.1-22.7,15.4c-3.2,1.8-10,5.4-17.2,9.4
		c-2.8,1.5-5.6,3.1-8.3,4.6l-0.5-0.6c-14.3-15.3-40.8-26.1-39.7-46.6c0.4-7.5,3-27.1,50.8-50.9c39.2-19.5,70.5-14.2,76-2.3
		c7.8,17-16.8,48.6-57.5,53.2C73.2,81,65,75,63,72.8c-2.2-2.4-2.5-2.5-3.3-2c-1.3,0.7-0.5,2.8,0,4.1c1.2,3.2,6.2,8.8,14.7,11.6
		c7.5,2.5,25.7,3.8,47.7-4.7c24.7-9.6,43.9-36.1,38.3-58.2c-5.8-22.6-43.2-30-78.5-17.4C60.8,13.6,38,25.3,21.6,40.6
		C2.1,58.8-1,74.7,0.3,81.3c4.6,23.6,37,38.9,50,50.3c-0.7,0.3-1.3,0.7-1.8,1c-6.5,3.2-31.3,16.2-37.5,29.9
		c-7,15.5,1.1,26.7,6.5,28.2c16.7,4.7,33.8-3.7,43.1-17.5c9.2-13.8,8.1-31.6,3.9-39.8l-0.2-0.3l5.1-3c3.3-2,6.6-3.8,9.4-5.3
		c-1.6,4.4-2.8,9.5-3.3,17c-0.7,8.8,2.9,20.2,7.7,24.7c2.1,1.9,4.6,2,6.2,2c5.5,0,8-4.6,10.8-10c3.4-6.7,6.4-14.4,6.4-14.4
		s-3.8,20.9,6.5,20.9c3.8,0,7.5-4.9,9.2-7.4v0.1c0,0,0.1-0.2,0.3-0.5c0.2-0.3,0.4-0.6,0.6-0.9v-0.1c1.5-2.6,4.9-8.6,9.9-18.4
		c6.5-12.7,12.7-28.6,12.7-28.6s0.6,3.9,2.5,10.3c1.1,3.8,3.5,8,5.3,12c-1.5,2.1-2.4,3.3-2.4,3.3l0.1,0.1c-1.2,1.6-2.6,3.3-3.9,5
		c-5.1,6.1-11.2,13.1-12,15.1c-1,2.3-0.8,4.1,1.1,5.5c1.4,1,3.8,1.2,6.3,1c4.6-0.3,7.8-1.5,9.4-2.2c2.5-0.9,5.4-2.3,8.1-4.3
		c5-3.7,8.1-9,7.8-16c-0.2-3.9-1.4-7.7-3-11.3c0.5-0.7,0.9-1.3,1.4-2c7.9-11.6,14-24.3,14-24.3s0.6,3.9,2.5,10.3
		c0.9,3.3,2.9,6.8,4.6,10.3c-7.4,6.1-12.1,13.1-13.7,17.7c-3,8.5-0.7,12.4,3.7,13.3c1.9,0.4,4.8-0.5,6.9-1.4
		c2.6-0.9,5.8-2.3,8.7-4.5c5-3.7,9.8-8.9,9.6-15.8c-0.2-3.2-1-6.4-2.2-9.4c6.3-2.6,14.5-4.1,24.8-2.9c22.3,2.6,26.7,16.5,25.8,22.3
		c-0.9,5.8-5.5,9-7.1,10c-1.6,1-2.1,1.3-1.9,2c0.2,1.1,0.9,1,2.3,0.8c1.9-0.3,11.7-4.8,12.1-15.5C256.6,125,243.5,110,220.4,110.2
		L220.4,110.2z M48.8,168c-7.4,8.1-17.7,11.1-22.1,8.5c-4.8-2.8-2.9-14.6,6.2-23.2c5.5-5.2,12.7-10,17.4-13c1.1-0.7,2.7-1.6,4.6-2.8
		c0.3-0.2,0.5-0.3,0.5-0.3c0.4-0.2,0.8-0.5,1.2-0.7C59.7,148.9,56.5,159.6,48.8,168L48.8,168z M102.5,131.5
		c-2.6,6.3-8,22.3-11.2,21.4c-2.8-0.8-4.5-12.9-0.6-24.9c2-6.1,6.3-13.3,8.8-16.1c4.1-4.5,8.5-6,9.6-4.2
		C110.4,110.2,104.1,127.6,102.5,131.5z M146.9,152.7c-1.1,0.6-2.1,1-2.6,0.7c-0.4-0.2,0.4-1,0.4-1s5.6-6,7.8-8.7
		c1.3-1.6,2.8-3.4,4.4-5.6v0.6C156.9,145.9,150,150.7,146.9,152.7L146.9,152.7z M181.1,144.9c-0.8-0.6-0.7-2.5,2-8.3
		c1.1-2.3,3.5-6.2,7.6-9.8c0.5,1.5,0.8,2.9,0.8,4.3C191.4,140.1,185,143.5,181.1,144.9z"/>
</g>
</svg>
